# xmcd
#
# Track frame offsets: 
#        150
#        19404
#        36915
#        53914
#        74048
#        92983
#        110045
#        127859
#        148489
#        168799
#        185926
#        204653
#        225635
#        245818
#        266624
#        286711
#        309229
#        326644
#        347174
#
# Disc length: 4775 seconds
#
# Revision: 0
# Processed by: cddbd v1.5.1PL2 Copyright (c) Steve Scherf et al.
# Submitted via: ExactAudioCopy v0.95b3
#
DISCID=2f12a513
DTITLE=Various Artist - Love Story- Ballads
DYEAR=2003
DGENRE=
TTITLE0=Stevie Wonder-I just called to say I love you
TTITLE1=Barbara Streisand-Woman in love
TTITLE2=George Michael-Carless wbisper
TTITLE3=Rod Steward-Sailing
TTITLE4=Joe Esposito-Lady,lady lady
TTITLE5=Foreigner-I what to know what love is
TTITLE6=Vaya Con Dios-what`s a woman
TTITLE7=Whitney Houston-I will always love you
TTITLE8=Zuccero fet.Paul Yong-Senza una donna
TTITLE9=Shade-Why (can`t we live together)
TTITLE10=Lionel Richie-Hello
TTITLE11=Celine Dion-My heart will go on
TTITLE12=Tony Braxton-Up break my heart
TTITLE13=Michael Jackson-Erath song
TTITLE14=Eros Ramazzotti-Cose della vita
TTITLE15=Michael Bolton-Said i loved you but i lied
TTITLE16=Sam Brown-Stop
TTITLE17=Black-Wonderful life
TTITLE18=Jason Donovan-Sealed with a kiss
EXTD=
EXTT0=
EXTT1=
EXTT2=
EXTT3=
EXTT4=
EXTT5=
EXTT6=
EXTT7=
EXTT8=
EXTT9=
EXTT10=
EXTT11=
EXTT12=
EXTT13=
EXTT14=
EXTT15=
EXTT16=
EXTT17=
EXTT18=
PLAYORDER=
